# xmcd
#
# Track frame offsets: 
#        150
#        13298
#        29859
#        45734
#        60989
#        70340
#        91187
#        108830
#        123657
#        150462
#        165534
#
# Disc length: 2415 seconds
#
# Revision: 0
# Processed by: cddbd v1.5.2PL0 Copyright (c) Steve Scherf et al.
# Submitted via: ExactAudioCopyFreeDBPlugin 1.0
#
DISCID=8d096d0b
DTITLE=The Dishonest Fiddlers - The Whistle Missed the Train
DYEAR=2016
DGENRE=Bluegrass
TTITLE0=Brand New Jalopy
TTITLE1=Irene
TTITLE2=There Ain't Enough Water In The Water
TTITLE3=Coal Mine Massacre
TTITLE4=Ding Toolie Turnaroud
TTITLE5=Slot Machine Senorita
TTITLE6=Criss-Cross Country Blues
TTITLE7=Savanah
TTITLE8=Come Payday
TTITLE9=Hundred Proof Water
TTITLE10=The Cuckoo
EXTD=
EXTT0=
EXTT1=
EXTT2=
EXTT3=
EXTT4=
EXTT5=
EXTT6=
EXTT7=
EXTT8=
EXTT9=
EXTT10=
PLAYORDER=
